<svg width="166" height="67" viewBox="0 0 166 67" fill="none" xmlns="http://www.w3.org/2000/svg">
<path d="M72.3347 17.8524C72.3347 21.8477 72.3347 25.0266 72.3347 28.2055C72.3347 34.7269 72.33 41.2498 72.3316 47.7712C72.3331 52.7921 72.61 53.1932 77.7126 54.925H64.599C69.8133 54.192 69.3052 50.3052 69.2879 46.6026C69.2408 36.5971 69.3115 26.5885 69.1983 16.5846C69.1841 15.2822 68.5141 13.909 67.8754 12.7152C67.2966 11.6314 66.3623 10.7349 65.5585 9.77693C60.3662 3.60158 57.9942 2.45648 49.1449 1.83674C51.7906 -0.190778 56.9073 -0.818382 60.6698 1.3916C64.3772 3.57011 67.9572 6.27714 70.8813 9.41673C81.0472 20.3266 90.9017 31.5259 100.879 42.6136C102.068 43.9348 103.281 45.2372 105.055 47.172C105.055 45.5754 105.055 44.671 105.055 43.765C105.052 34.384 105.052 25.003 105.047 15.622C105.046 11.4033 104.448 10.6263 100.319 8.99361C102.348 8.99361 104.377 8.99361 106.408 8.99361C108.544 8.99361 110.681 8.99361 112.817 8.99361L112.902 9.36954C112.501 9.52368 112.113 9.73289 111.697 9.82412C109.357 10.3322 108.16 11.7635 108.158 14.1576C108.152 25.8618 108.149 37.566 108.169 49.2687C108.169 49.8633 108.213 50.6513 108.572 51.0225C112.218 54.7865 115.576 58.9737 119.76 62.0205C122.464 63.9898 126.406 64.2572 129.494 65.1978C126.18 66.4436 122.337 66.3492 118.483 64.9509C113.783 63.2458 110.354 59.831 107.103 56.2541C96.2906 44.358 85.5348 32.4115 74.7555 20.4839C74.1326 19.795 73.4987 19.1186 72.3347 17.854V17.8524Z" fill="#442C21"/>
<path d="M154.568 33.0816H166C164.963 33.9247 163.641 34.5082 163.195 35.4897C162.683 36.6223 162.914 38.104 162.879 39.4347C162.842 40.8629 162.661 42.3305 162.911 43.7146C163.557 47.2868 161.624 49.3819 159.063 51.2946C149.341 58.5632 133.898 57.3316 125.978 48.6175C118.002 39.8389 118.099 24.0277 126.233 15.1359C129.749 11.2932 134.233 9.24213 139.323 8.43836C145.689 7.43325 151.749 8.39116 157.547 11.2177C159.142 11.9948 160.002 13.0455 160.119 14.8732C160.254 16.9936 160.639 19.0966 160.965 21.5771C160.493 21.1965 160.249 21.1005 160.19 20.9369C157.306 13.1414 151.295 10.0648 143.439 10.1953C135.57 10.3275 129.944 14.3007 127.158 21.5629C123.97 29.8759 124.141 38.244 128.994 46.0017C135.505 56.4114 149.671 55.7004 157.722 48.9006C158.282 48.4272 158.546 47.356 158.577 46.5475C158.681 43.8719 158.621 41.1901 158.615 38.5114C158.604 34.7819 158.131 34.2047 154.566 33.0847L154.568 33.0816Z" fill="#442C21"/>
<path d="M37.7946 8.20715V15.7887C37.6483 15.8233 37.502 15.8595 37.3541 15.8941C37.2047 15.3042 37.2267 14.5681 36.8712 14.1529C35.9558 13.077 34.935 11.3766 33.8465 11.287C29.6971 10.9504 25.5036 11.1517 20.9767 11.1517C20.9767 12.3047 20.9767 13.261 20.9767 14.2173C20.9767 25.2877 20.9751 36.358 20.9798 47.4284C20.983 52.7087 21.0947 52.877 26.0683 54.9517H12.011C16.9248 54.0976 16.6448 50.4217 16.626 46.7646C16.5709 36.0513 16.6071 25.338 16.6071 14.6263C16.6071 13.574 16.6071 12.5217 16.6071 11.1643C12.1163 11.1643 7.85682 10.9739 3.62562 11.2382C1.24734 11.3876 0.473454 13.4796 0 15.644V8.23075C12.519 9.40416 25.0223 9.39315 37.7946 8.2103V8.20715Z" fill="#442C21"/>
<path d="M43.0356 54.8511C46.9931 53.5314 47.6742 52.6521 47.6789 48.3595C47.6899 37.4575 47.6946 26.5539 47.6836 15.6519C47.6789 11.5874 47.0356 10.7475 43.1488 9.26575H56.6148C52.0485 9.96099 51.9887 13.261 52.0249 16.8851C52.1287 27.2507 52.0548 37.6179 52.0454 47.9836C52.0407 52.6002 52.5503 53.3206 56.7752 54.8511H43.0372H43.0356Z" fill="#442C21"/>
</svg>
